# xmcd CD database file
#
# Track frame offsets:
#	150
#	13416
#	27828
#	39938
#	50961
#	61803
#	73265
#	83763
#	94511
#	107317
#	115646
#	126023
#	136585
#	148943
#	160212
#	172155
#	181946
#	192440
#
# Disc length: 2778 seconds
#
# Revision: 3
# Processed by: cddbd v1.4PL0 Copyright (c) Steve Scherf et al.
# Submitted via: CDex 1.51
#
DISCID=f50ad812
DTITLE=Various Artist - Country Vol 1
DYEAR=1900
DGENRE=Country
TTITLE0=Kenny Rogers =Shine On Ruby Mountain
TTITLE1=Jeannie C Riley - Harper Valley P.T.A.
TTITLE2=Hank Williams - Never Again ( Will I Knock On Your Door )
TTITLE3=Patsy Cline - A Stranger Im My Arms
TTITLE4=Donna Fargo - Wishful Thinking
TTITLE5=Ed Bruce - Babt That's Good
TTITLE6=Jerry Wallace - Empty Arms Again
TTITLE7=Faron Young - Wine Me Up
TTITLE8=Billie Joe Spears - He's On The Run Again
TTITLE9=Boxcar Willie - Hey Good Lookin'
TTITLE10=Willie Nelson - Blame It On The Tomes
TTITLE11=Freddy Fender - A Man Can Cry
TTITLE12=Jerry Lee Lewis - Crazy Arms
TTITLE13=Waylon Jennings - Sally Was A Good Old Girl
TTITLE14=Conway Twitty - Maybe Baby
TTITLE15=Box Car Willie - King Of The Road
TTITLE16=Mickey Gilley - Move On Down The Line
TTITLE17=Ed Bruce - No Money Down
EXTD=
EXTT0=
EXTT1=
EXTT2=
EXTT3=
EXTT4=
EXTT5=
EXTT6=
EXTT7=
EXTT8=
EXTT9=
EXTT10=
EXTT11=
EXTT12=
EXTT13=
EXTT14=
EXTT15=
EXTT16=
EXTT17=
PLAYORDER=
